<svg width="21" height="20" viewBox="0 0 21 20" fill="none" xmlns="http://www.w3.org/2000/svg">
<path d="M14.7939 12.5786H13.8905L13.5703 12.2699C14.691 10.9663 15.3656 9.27387 15.3656 7.43282C15.3656 3.32762 12.038 0 7.93282 0C3.82762 0 0.5 3.32762 0.5 7.43282C0.5 11.538 3.82762 14.8656 7.93282 14.8656C9.77387 14.8656 11.4663 14.191 12.7699 13.0703L13.0786 13.3905V14.2939L18.7962 20L20.5 18.2962L14.7939 12.5786ZM7.93282 12.5786C5.08548 12.5786 2.78702 10.2802 2.78702 7.43282C2.78702 4.58548 5.08548 2.28702 7.93282 2.28702C10.7802 2.28702 13.0786 4.58548 13.0786 7.43282C13.0786 10.2802 10.7802 12.5786 7.93282 12.5786Z" fill="white"/>
</svg>
