<svg width="19" height="13" viewBox="0 0 19 13" fill="none" xmlns="http://www.w3.org/2000/svg">
<path d="M18.6367 5.77475C16.8714 2.33041 13.3766 0 9.375 0C5.37336 0 1.87759 2.33204 0.113264 5.77508C0.038798 5.92238 0 6.08512 0 6.25017C0 6.41523 0.038798 6.57797 0.113264 6.72527C1.87857 10.1696 5.37336 12.5 9.375 12.5C13.3766 12.5 16.8724 10.168 18.6367 6.72495C18.7112 6.57765 18.75 6.4149 18.75 6.24985C18.75 6.08479 18.7112 5.92205 18.6367 5.77475ZM9.375 10.9375C8.4479 10.9375 7.54162 10.6626 6.77076 10.1475C5.9999 9.63246 5.39909 8.90037 5.04431 8.04384C4.68952 7.18731 4.59669 6.24481 4.77756 5.33552C4.95843 4.42624 5.40487 3.591 6.06043 2.93544C6.71599 2.27988 7.55122 1.83344 8.46051 1.65257C9.3698 1.4717 10.3123 1.56453 11.1688 1.91932C12.0254 2.2741 12.7575 2.87491 13.2725 3.64577C13.7876 4.41663 14.0625 5.32291 14.0625 6.25001C14.0628 6.86567 13.9418 7.47535 13.7063 8.0442C13.4708 8.61305 13.1256 9.12991 12.6902 9.56525C12.2549 10.0006 11.738 10.3459 11.1692 10.5813C10.6003 10.8168 9.99066 10.9378 9.375 10.9375ZM9.375 3.12501C9.09607 3.1289 8.81894 3.1704 8.55111 3.24838C8.77188 3.5484 8.87782 3.91761 8.84973 4.28905C8.82163 4.66049 8.66134 5.00956 8.39795 5.27296C8.13455 5.53636 7.78548 5.69664 7.41404 5.72474C7.0426 5.75284 6.67339 5.64689 6.37337 5.42612C6.20252 6.05554 6.23336 6.72269 6.46154 7.33367C6.68973 7.94465 7.10376 8.46869 7.64538 8.83203C8.18699 9.19538 8.82891 9.37973 9.48078 9.35913C10.1327 9.33854 10.7617 9.11404 11.2793 8.71724C11.7969 8.32044 12.177 7.77131 12.3662 7.14714C12.5553 6.52298 12.544 5.85521 12.3338 5.23783C12.1235 4.62044 11.725 4.08453 11.1942 3.70551C10.6635 3.3265 10.0272 3.12347 9.375 3.12501Z" fill="#C2C2C2"/>
</svg>
