<svg width="80" height="68" viewBox="0 0 80 68" fill="none" xmlns="http://www.w3.org/2000/svg">
<path d="M76 0H20C18.9391 0 17.9217 0.444688 17.1716 1.23624C16.4214 2.02779 16 3.10136 16 4.22078V16.8831H36V8.44156H60V50.6494H76C77.0609 50.6494 78.0783 50.2047 78.8284 49.4131C79.5786 48.6216 80 47.548 80 46.4286V4.22078C80 3.10136 79.5786 2.02779 78.8284 1.23624C78.0783 0.444688 77.0609 0 76 0ZM29 13.5856C29 13.9005 28.8815 14.2024 28.6705 14.425C28.4595 14.6477 28.1734 14.7727 27.875 14.7727H24.125C23.8266 14.7727 23.5405 14.6477 23.3295 14.425C23.1185 14.2024 23 13.9005 23 13.5856V9.62865C23 9.31382 23.1185 9.01187 23.3295 8.78925C23.5405 8.56663 23.8266 8.44156 24.125 8.44156H27.875C28.1734 8.44156 28.4595 8.56663 28.6705 8.78925C28.8815 9.01187 29 9.31382 29 9.62865V13.5856ZM73 41.0207C73 41.3355 72.8815 41.6375 72.6705 41.8601C72.4595 42.0827 72.1734 42.2078 71.875 42.2078H68.125C67.8266 42.2078 67.5405 42.0827 67.3295 41.8601C67.1185 41.6375 67 41.3355 67 41.0207V37.0637C67 36.7489 67.1185 36.4469 67.3295 36.2243C67.5405 36.0017 67.8266 35.8766 68.125 35.8766H71.875C72.1734 35.8766 72.4595 36.0017 72.6705 36.2243C72.8815 36.4469 73 36.7489 73 37.0637V41.0207ZM73 27.3032C73 27.618 72.8815 27.9199 72.6705 28.1426C72.4595 28.3652 72.1734 28.4903 71.875 28.4903H68.125C67.8266 28.4903 67.5405 28.3652 67.3295 28.1426C67.1185 27.9199 67 27.618 67 27.3032V23.3462C67 23.0313 67.1185 22.7294 67.3295 22.5068C67.5405 22.2842 67.8266 22.1591 68.125 22.1591H71.875C72.1734 22.1591 72.4595 22.2842 72.6705 22.5068C72.8815 22.7294 73 23.0313 73 23.3462V27.3032ZM73 13.5856C73 13.9005 72.8815 14.2024 72.6705 14.425C72.4595 14.6477 72.1734 14.7727 71.875 14.7727H68.125C67.8266 14.7727 67.5405 14.6477 67.3295 14.425C67.1185 14.2024 67 13.9005 67 13.5856V9.62865C67 9.31382 67.1185 9.01187 67.3295 8.78925C67.5405 8.56663 67.8266 8.44156 68.125 8.44156H71.875C72.1734 8.44156 72.4595 8.56663 72.6705 8.78925C72.8815 9.01187 73 9.31382 73 9.62865V13.5856ZM52 21.1039H4C2.93913 21.1039 1.92172 21.5486 1.17157 22.3401C0.421427 23.1317 0 24.2053 0 25.3247L0 63.3117C0 64.4311 0.421427 65.5047 1.17157 66.2962C1.92172 67.0878 2.93913 67.5325 4 67.5325H52C53.0609 67.5325 54.0783 67.0878 54.8284 66.2962C55.5786 65.5047 56 64.4311 56 63.3117V25.3247C56 24.2053 55.5786 23.1317 54.8284 22.3401C54.0783 21.5486 53.0609 21.1039 52 21.1039ZM12 29.5455C12.7911 29.5455 13.5645 29.793 14.2223 30.2568C14.8801 30.7206 15.3928 31.3798 15.6955 32.151C15.9983 32.9223 16.0775 33.7709 15.9231 34.5897C15.7688 35.4084 15.3878 36.1605 14.8284 36.7508C14.269 37.3411 13.5563 37.7431 12.7804 37.9059C12.0044 38.0688 11.2002 37.9852 10.4693 37.6657C9.73836 37.3463 9.11365 36.8053 8.67412 36.1112C8.2346 35.4171 8 34.601 8 33.7662C8 32.6468 8.42143 31.5732 9.17157 30.7817C9.92172 29.9901 10.9391 29.5455 12 29.5455ZM48 59.0909H8V54.8701L16 46.4286L20 50.6494L36 33.7662L48 46.4286V59.0909Z" fill="#545454"/>
</svg>
