<svg width="15" height="18" viewBox="0 0 15 18" fill="none" xmlns="http://www.w3.org/2000/svg">
<path d="M0.401786 6.42857H14.5982C14.8192 6.42857 15 6.60938 15 6.83036V15.5357C15 16.423 14.2801 17.1429 13.3929 17.1429H1.60714C0.719866 17.1429 0 16.423 0 15.5357V6.83036C0 6.60938 0.180804 6.42857 0.401786 6.42857ZM15 4.95536V3.75C15 2.86272 14.2801 2.14286 13.3929 2.14286H11.7857V0.401786C11.7857 0.180804 11.6049 0 11.3839 0H10.0446C9.82366 0 9.64286 0.180804 9.64286 0.401786V2.14286H5.35714V0.401786C5.35714 0.180804 5.17634 0 4.95536 0H3.61607C3.39509 0 3.21429 0.180804 3.21429 0.401786V2.14286H1.60714C0.719866 2.14286 0 2.86272 0 3.75V4.95536C0 5.17634 0.180804 5.35714 0.401786 5.35714H14.5982C14.8192 5.35714 15 5.17634 15 4.95536Z" fill="#C2C2C2"/>
</svg>
